# xmcd
#
# Track frame offsets: 
#        150
#        13048
#        29931
#        49942
#        68650
#        90548
#        126643
#        147232
#        166741
#        183039
#        203823
#        225596
#        260416
#
# Disc length: 3934 seconds
#
# Revision: 0
# Processed by: cddbd v1.5.2PL0 Copyright (c) Steve Scherf et al.
# Submitted via: ExactAudioCopy v1.3
#
DISCID=b40f5c0d
DTITLE=Scotty Bratcher - That Album
DYEAR=2016
DGENRE=Blues Rock
TTITLE0=Ain't No Way I'm Coming Home
TTITLE1=Disappointing Ourselves
TTITLE2=Worry Me No More
TTITLE3=Tables Turn And Bridges Burn
TTITLE4=Hard To Feel
TTITLE5=Without Hope
TTITLE6=That's Alright Mama
TTITLE7=Let Your Soul Give Way
TTITLE8=Cold Blooded Killer
TTITLE9=All And Nothing More
TTITLE10=Rollin'
TTITLE11=As The Years Go Passing By
TTITLE12=Whipping Post
EXTD=
EXTT0=
EXTT1=
EXTT2=
EXTT3=
EXTT4=
EXTT5=
EXTT6=
EXTT7=
EXTT8=
EXTT9=
EXTT10=
EXTT11=
EXTT12=
PLAYORDER=
